<mxfile host="app.diagrams.net" modified="2024-06-21T22:15:26.317Z" agent="Mozilla/5.0 (Windows NT 10.0; Win64; x64) AppleWebKit/537.36 (KHTML, like Gecko) Chrome/126.0.0.0 Safari/537.36" etag="r2vJyTd2gURnHysntYQs" version="24.6.1" type="device">
  <diagram name="Page-1" id="pKrnEjCGrd04jN9sTsZ8">
    <mxGraphModel dx="910" dy="459" grid="1" gridSize="10" guides="1" tooltips="1" connect="1" arrows="1" fold="1" page="1" pageScale="1" pageWidth="850" pageHeight="1100" math="0" shadow="0">
      <root>
        <mxCell id="0" />
        <mxCell id="1" parent="0" />
        <mxCell id="s_ZDjpKZWQEzo_qJ0VrK-18" value="" style="rounded=0;orthogonalLoop=1;jettySize=auto;html=1;exitX=0;exitY=0.5;exitDx=0;exitDy=0;" edge="1" parent="1" source="s_ZDjpKZWQEzo_qJ0VrK-6" target="s_ZDjpKZWQEzo_qJ0VrK-8">
          <mxGeometry relative="1" as="geometry">
            <mxPoint x="350" y="150" as="sourcePoint" />
            <mxPoint x="240" y="215" as="targetPoint" />
            <Array as="points">
              <mxPoint x="245" y="130" />
            </Array>
          </mxGeometry>
        </mxCell>
        <mxCell id="s_ZDjpKZWQEzo_qJ0VrK-2" value="Produto Interface" style="swimlane;fontStyle=0;childLayout=stackLayout;horizontal=1;startSize=26;fillColor=#dae8fc;horizontalStack=0;resizeParent=1;resizeParentMax=0;resizeLast=0;collapsible=1;marginBottom=0;html=1;strokeColor=#6c8ebf;" vertex="1" parent="1">
          <mxGeometry x="355" y="40" width="140" height="156" as="geometry">
            <mxRectangle x="350" y="190" width="60" height="30" as="alternateBounds" />
          </mxGeometry>
        </mxCell>
        <mxCell id="s_ZDjpKZWQEzo_qJ0VrK-3" value="nome: string" style="text;strokeColor=none;fillColor=none;align=left;verticalAlign=top;spacingLeft=4;spacingRight=4;overflow=hidden;rotatable=0;points=[[0,0.5],[1,0.5]];portConstraint=eastwest;whiteSpace=wrap;html=1;" vertex="1" parent="s_ZDjpKZWQEzo_qJ0VrK-2">
          <mxGeometry y="26" width="140" height="26" as="geometry" />
        </mxCell>
        <mxCell id="s_ZDjpKZWQEzo_qJ0VrK-4" value="descrição: string" style="text;strokeColor=none;fillColor=none;align=left;verticalAlign=top;spacingLeft=4;spacingRight=4;overflow=hidden;rotatable=0;points=[[0,0.5],[1,0.5]];portConstraint=eastwest;whiteSpace=wrap;html=1;" vertex="1" parent="s_ZDjpKZWQEzo_qJ0VrK-2">
          <mxGeometry y="52" width="140" height="26" as="geometry" />
        </mxCell>
        <mxCell id="s_ZDjpKZWQEzo_qJ0VrK-6" value="preco: number" style="text;strokeColor=none;fillColor=none;align=left;verticalAlign=top;spacingLeft=4;spacingRight=4;overflow=hidden;rotatable=0;points=[[0,0.5],[1,0.5]];portConstraint=eastwest;whiteSpace=wrap;html=1;" vertex="1" parent="s_ZDjpKZWQEzo_qJ0VrK-2">
          <mxGeometry y="78" width="140" height="26" as="geometry" />
        </mxCell>
        <mxCell id="s_ZDjpKZWQEzo_qJ0VrK-5" value="tipo: ENUM" style="text;strokeColor=none;fillColor=none;align=left;verticalAlign=top;spacingLeft=4;spacingRight=4;overflow=hidden;rotatable=0;points=[[0,0.5],[1,0.5]];portConstraint=eastwest;whiteSpace=wrap;html=1;" vertex="1" parent="s_ZDjpKZWQEzo_qJ0VrK-2">
          <mxGeometry y="104" width="140" height="26" as="geometry" />
        </mxCell>
        <mxCell id="s_ZDjpKZWQEzo_qJ0VrK-24" value="estaDisponivel():boolen" style="text;strokeColor=none;fillColor=none;align=left;verticalAlign=top;spacingLeft=4;spacingRight=4;overflow=hidden;rotatable=0;points=[[0,0.5],[1,0.5]];portConstraint=eastwest;whiteSpace=wrap;html=1;" vertex="1" parent="s_ZDjpKZWQEzo_qJ0VrK-2">
          <mxGeometry y="130" width="140" height="26" as="geometry" />
        </mxCell>
        <mxCell id="s_ZDjpKZWQEzo_qJ0VrK-48" style="edgeStyle=none;rounded=0;orthogonalLoop=1;jettySize=auto;html=1;entryX=0.5;entryY=0;entryDx=0;entryDy=0;" edge="1" parent="1" source="s_ZDjpKZWQEzo_qJ0VrK-8" target="s_ZDjpKZWQEzo_qJ0VrK-39">
          <mxGeometry relative="1" as="geometry" />
        </mxCell>
        <mxCell id="s_ZDjpKZWQEzo_qJ0VrK-8" value="Produto fisico classe mãe" style="swimlane;fontStyle=0;childLayout=stackLayout;horizontal=1;startSize=26;fillColor=#d5e8d4;horizontalStack=0;resizeParent=1;resizeParentMax=0;resizeLast=0;collapsible=1;marginBottom=0;html=1;strokeColor=#82b366;" vertex="1" parent="1">
          <mxGeometry x="150" y="220" width="190" height="234" as="geometry">
            <mxRectangle x="350" y="190" width="60" height="30" as="alternateBounds" />
          </mxGeometry>
        </mxCell>
        <mxCell id="s_ZDjpKZWQEzo_qJ0VrK-9" value="protected estoque: number&amp;nbsp; = 0" style="text;strokeColor=none;fillColor=none;align=left;verticalAlign=top;spacingLeft=4;spacingRight=4;overflow=hidden;rotatable=0;points=[[0,0.5],[1,0.5]];portConstraint=eastwest;whiteSpace=wrap;html=1;" vertex="1" parent="s_ZDjpKZWQEzo_qJ0VrK-8">
          <mxGeometry y="26" width="190" height="26" as="geometry" />
        </mxCell>
        <mxCell id="s_ZDjpKZWQEzo_qJ0VrK-10" value="protected descrição: string" style="text;strokeColor=none;fillColor=none;align=left;verticalAlign=top;spacingLeft=4;spacingRight=4;overflow=hidden;rotatable=0;points=[[0,0.5],[1,0.5]];portConstraint=eastwest;whiteSpace=wrap;html=1;" vertex="1" parent="s_ZDjpKZWQEzo_qJ0VrK-8">
          <mxGeometry y="52" width="190" height="26" as="geometry" />
        </mxCell>
        <mxCell id="s_ZDjpKZWQEzo_qJ0VrK-11" value="public tipo: ENUM FISICO" style="text;strokeColor=none;fillColor=none;align=left;verticalAlign=top;spacingLeft=4;spacingRight=4;overflow=hidden;rotatable=0;points=[[0,0.5],[1,0.5]];portConstraint=eastwest;whiteSpace=wrap;html=1;" vertex="1" parent="s_ZDjpKZWQEzo_qJ0VrK-8">
          <mxGeometry y="78" width="190" height="26" as="geometry" />
        </mxCell>
        <mxCell id="s_ZDjpKZWQEzo_qJ0VrK-12" value="estaDisponivel():boolen" style="text;strokeColor=none;fillColor=none;align=left;verticalAlign=top;spacingLeft=4;spacingRight=4;overflow=hidden;rotatable=0;points=[[0,0.5],[1,0.5]];portConstraint=eastwest;whiteSpace=wrap;html=1;" vertex="1" parent="s_ZDjpKZWQEzo_qJ0VrK-8">
          <mxGeometry y="104" width="190" height="26" as="geometry" />
        </mxCell>
        <mxCell id="s_ZDjpKZWQEzo_qJ0VrK-20" value="public nome: string" style="text;strokeColor=none;fillColor=none;align=left;verticalAlign=top;spacingLeft=4;spacingRight=4;overflow=hidden;rotatable=0;points=[[0,0.5],[1,0.5]];portConstraint=eastwest;whiteSpace=wrap;html=1;" vertex="1" parent="s_ZDjpKZWQEzo_qJ0VrK-8">
          <mxGeometry y="130" width="190" height="26" as="geometry" />
        </mxCell>
        <mxCell id="s_ZDjpKZWQEzo_qJ0VrK-21" value="public preco: string" style="text;strokeColor=none;fillColor=none;align=left;verticalAlign=top;spacingLeft=4;spacingRight=4;overflow=hidden;rotatable=0;points=[[0,0.5],[1,0.5]];portConstraint=eastwest;whiteSpace=wrap;html=1;" vertex="1" parent="s_ZDjpKZWQEzo_qJ0VrK-8">
          <mxGeometry y="156" width="190" height="26" as="geometry" />
        </mxCell>
        <mxCell id="s_ZDjpKZWQEzo_qJ0VrK-22" value="construtor" style="text;strokeColor=none;fillColor=none;align=left;verticalAlign=top;spacingLeft=4;spacingRight=4;overflow=hidden;rotatable=0;points=[[0,0.5],[1,0.5]];portConstraint=eastwest;whiteSpace=wrap;html=1;" vertex="1" parent="s_ZDjpKZWQEzo_qJ0VrK-8">
          <mxGeometry y="182" width="190" height="26" as="geometry" />
        </mxCell>
        <mxCell id="s_ZDjpKZWQEzo_qJ0VrK-23" value="public get descricao" style="text;strokeColor=none;fillColor=none;align=left;verticalAlign=top;spacingLeft=4;spacingRight=4;overflow=hidden;rotatable=0;points=[[0,0.5],[1,0.5]];portConstraint=eastwest;whiteSpace=wrap;html=1;" vertex="1" parent="s_ZDjpKZWQEzo_qJ0VrK-8">
          <mxGeometry y="208" width="190" height="26" as="geometry" />
        </mxCell>
        <mxCell id="s_ZDjpKZWQEzo_qJ0VrK-19" value="&lt;font style=&quot;font-size: 14px;&quot;&gt;implements&lt;/font&gt;" style="text;html=1;align=center;verticalAlign=middle;whiteSpace=wrap;rounded=0;strokeWidth=4;strokeColor=none;fillColor=none;glass=0;shadow=0;" vertex="1" parent="1">
          <mxGeometry x="250" y="103" width="60" height="30" as="geometry" />
        </mxCell>
        <mxCell id="s_ZDjpKZWQEzo_qJ0VrK-25" value="Produto Digital classe" style="swimlane;fontStyle=0;childLayout=stackLayout;horizontal=1;startSize=26;fillColor=#d5e8d4;horizontalStack=0;resizeParent=1;resizeParentMax=0;resizeLast=0;collapsible=1;marginBottom=0;html=1;strokeColor=#82b366;" vertex="1" parent="1">
          <mxGeometry x="530" y="220" width="190" height="104" as="geometry">
            <mxRectangle x="350" y="190" width="60" height="30" as="alternateBounds" />
          </mxGeometry>
        </mxCell>
        <mxCell id="s_ZDjpKZWQEzo_qJ0VrK-28" value="tipo: ENUM DIGITAL" style="text;strokeColor=none;fillColor=none;align=left;verticalAlign=top;spacingLeft=4;spacingRight=4;overflow=hidden;rotatable=0;points=[[0,0.5],[1,0.5]];portConstraint=eastwest;whiteSpace=wrap;html=1;" vertex="1" parent="s_ZDjpKZWQEzo_qJ0VrK-25">
          <mxGeometry y="26" width="190" height="26" as="geometry" />
        </mxCell>
        <mxCell id="s_ZDjpKZWQEzo_qJ0VrK-29" value="estaDisponivel():boolen" style="text;strokeColor=none;fillColor=none;align=left;verticalAlign=top;spacingLeft=4;spacingRight=4;overflow=hidden;rotatable=0;points=[[0,0.5],[1,0.5]];portConstraint=eastwest;whiteSpace=wrap;html=1;" vertex="1" parent="s_ZDjpKZWQEzo_qJ0VrK-25">
          <mxGeometry y="52" width="190" height="26" as="geometry" />
        </mxCell>
        <mxCell id="s_ZDjpKZWQEzo_qJ0VrK-32" value="construtor" style="text;strokeColor=none;fillColor=none;align=left;verticalAlign=top;spacingLeft=4;spacingRight=4;overflow=hidden;rotatable=0;points=[[0,0.5],[1,0.5]];portConstraint=eastwest;whiteSpace=wrap;html=1;" vertex="1" parent="s_ZDjpKZWQEzo_qJ0VrK-25">
          <mxGeometry y="78" width="190" height="26" as="geometry" />
        </mxCell>
        <mxCell id="s_ZDjpKZWQEzo_qJ0VrK-36" style="edgeStyle=none;rounded=0;orthogonalLoop=1;jettySize=auto;html=1;exitX=1;exitY=0.5;exitDx=0;exitDy=0;entryX=0.5;entryY=0;entryDx=0;entryDy=0;" edge="1" parent="1" source="s_ZDjpKZWQEzo_qJ0VrK-6" target="s_ZDjpKZWQEzo_qJ0VrK-25">
          <mxGeometry relative="1" as="geometry">
            <mxPoint x="630" y="131" as="targetPoint" />
            <Array as="points">
              <mxPoint x="625" y="131" />
            </Array>
          </mxGeometry>
        </mxCell>
        <mxCell id="s_ZDjpKZWQEzo_qJ0VrK-37" value="&lt;font style=&quot;font-size: 14px;&quot;&gt;implements&lt;/font&gt;" style="text;html=1;align=center;verticalAlign=middle;whiteSpace=wrap;rounded=0;strokeWidth=4;strokeColor=none;fillColor=none;glass=0;shadow=0;" vertex="1" parent="1">
          <mxGeometry x="540" y="103" width="60" height="30" as="geometry" />
        </mxCell>
        <mxCell id="s_ZDjpKZWQEzo_qJ0VrK-39" value="Produto variante classe filho" style="swimlane;fontStyle=0;childLayout=stackLayout;horizontal=1;startSize=26;fillColor=#d5e8d4;horizontalStack=0;resizeParent=1;resizeParentMax=0;resizeLast=0;collapsible=1;marginBottom=0;html=1;strokeColor=#82b366;" vertex="1" parent="1">
          <mxGeometry x="150" y="520" width="190" height="78" as="geometry">
            <mxRectangle x="350" y="190" width="60" height="30" as="alternateBounds" />
          </mxGeometry>
        </mxCell>
        <mxCell id="s_ZDjpKZWQEzo_qJ0VrK-40" value="public categorias: string[ ] = [ ]&amp;nbsp;" style="text;strokeColor=none;fillColor=none;align=left;verticalAlign=top;spacingLeft=4;spacingRight=4;overflow=hidden;rotatable=0;points=[[0,0.5],[1,0.5]];portConstraint=eastwest;whiteSpace=wrap;html=1;" vertex="1" parent="s_ZDjpKZWQEzo_qJ0VrK-39">
          <mxGeometry y="26" width="190" height="26" as="geometry" />
        </mxCell>
        <mxCell id="s_ZDjpKZWQEzo_qJ0VrK-46" value="construtor" style="text;strokeColor=none;fillColor=none;align=left;verticalAlign=top;spacingLeft=4;spacingRight=4;overflow=hidden;rotatable=0;points=[[0,0.5],[1,0.5]];portConstraint=eastwest;whiteSpace=wrap;html=1;" vertex="1" parent="s_ZDjpKZWQEzo_qJ0VrK-39">
          <mxGeometry y="52" width="190" height="26" as="geometry" />
        </mxCell>
        <mxCell id="s_ZDjpKZWQEzo_qJ0VrK-50" value="&lt;span style=&quot;font-size: 14px;&quot;&gt;Herança&lt;/span&gt;" style="text;html=1;align=center;verticalAlign=middle;whiteSpace=wrap;rounded=0;strokeWidth=4;strokeColor=none;fillColor=none;glass=0;shadow=0;" vertex="1" parent="1">
          <mxGeometry x="250" y="470" width="60" height="30" as="geometry" />
        </mxCell>
      </root>
    </mxGraphModel>
  </diagram>
</mxfile>
